<svg width="213" height="59" viewBox="0 0 213 59" fill="none" xmlns="http://www.w3.org/2000/svg">
<path d="M20.2853 58.7911C15.8022 58.7911 11.952 58.0264 8.7347 56.4968C5.57015 54.9673 2.69569 52.673 0.111308 49.6139L7.23154 42.4937C8.86656 44.6562 10.7653 46.3439 12.9277 47.557C15.0902 48.7173 17.7273 49.2975 20.8391 49.2975C23.6344 49.2975 25.8496 48.7437 27.4846 47.6361C29.1724 46.5285 30.0163 44.999 30.0163 43.0475C30.0163 41.3598 29.5416 39.9884 28.5922 38.9336C27.6429 37.8787 26.3771 36.9821 24.7948 36.2437C23.2653 35.5053 21.5511 34.8461 19.6524 34.2659C17.8064 33.633 15.934 32.921 14.0353 32.1298C12.1893 31.3387 10.4752 30.3629 8.89293 29.2026C7.3634 27.9895 6.12395 26.46 5.17458 24.614C4.22522 22.7153 3.75054 20.3419 3.75054 17.4938C3.75054 14.1183 4.56805 11.2438 6.20306 8.87039C7.83808 6.49698 10.0796 4.67737 12.9277 3.41155C15.7758 2.14573 18.9931 1.51282 22.5796 1.51282C26.3771 1.51282 29.8053 2.22484 32.8644 3.64889C35.9234 5.07294 38.4287 6.91892 40.3802 9.18685L33.2599 16.3071C31.6249 14.5138 29.9372 13.1953 28.1967 12.3514C26.5089 11.5075 24.5838 11.0856 22.4214 11.0856C19.9425 11.0856 17.991 11.5603 16.567 12.5096C15.1429 13.459 14.4309 14.8303 14.4309 16.6235C14.4309 18.1531 14.9056 19.3925 15.8549 20.3419C16.8043 21.2912 18.0437 22.1088 19.5733 22.7944C21.1556 23.4801 22.8697 24.1393 24.7157 24.7722C26.6144 25.4052 28.4868 26.1172 30.3327 26.9083C32.2315 27.6995 33.9456 28.7279 35.4751 29.9938C37.0574 31.2596 38.3232 32.8946 39.2726 34.8988C40.222 36.8503 40.6966 39.2764 40.6966 42.1773C40.6966 47.346 38.877 51.4072 35.2378 54.3608C31.5986 57.3143 26.6144 58.7911 20.2853 58.7911ZM73.7927 58V36.0855C73.7927 33.8176 73.0807 31.9716 71.6567 30.5475C70.2326 29.1235 68.3866 28.4115 66.1187 28.4115C64.6419 28.4115 63.3234 28.7279 62.163 29.3608C61.0027 29.9938 60.0797 30.8904 59.394 32.0507C58.7611 33.211 58.4447 34.556 58.4447 36.0855L54.4099 34.0286C54.4099 31.0222 55.0428 28.4115 56.3086 26.1963C57.5744 23.9284 59.3149 22.1615 61.5301 20.8957C63.798 19.6299 66.3824 18.9969 69.2833 18.9969C72.1841 18.9969 74.7421 19.6299 76.9573 20.8957C79.2252 22.1615 80.9921 23.902 82.2579 26.1172C83.5237 28.3324 84.1566 30.8904 84.1566 33.7912V58H73.7927ZM48.0808 58V0.800796H58.4447V58H48.0808ZM108.486 58.7911C105.005 58.7911 101.867 57.9209 99.0714 56.1804C96.2761 54.4399 94.0873 52.0665 92.505 49.0602C90.9227 46.0538 90.1316 42.6783 90.1316 38.9336C90.1316 35.1361 90.9227 31.7343 92.505 28.7279C94.0873 25.7216 96.2761 23.3482 99.0714 21.6077C101.867 19.8672 105.005 18.9969 108.486 18.9969C111.229 18.9969 113.681 19.5507 115.844 20.6583C118.006 21.7659 119.72 23.3218 120.986 25.326C122.304 27.2775 123.016 29.4927 123.122 31.9716V45.7374C123.016 48.269 122.304 50.5106 120.986 52.462C119.72 54.4135 118.006 55.9694 115.844 57.1297C113.681 58.2373 111.229 58.7911 108.486 58.7911ZM110.385 49.2184C113.286 49.2184 115.633 48.269 117.426 46.3703C119.219 44.4188 120.116 41.9135 120.116 38.8545C120.116 36.8503 119.694 35.0834 118.85 33.5539C118.059 31.9716 116.925 30.7585 115.448 29.9146C114.024 29.018 112.336 28.5697 110.385 28.5697C108.486 28.5697 106.798 29.018 105.321 29.9146C103.897 30.7585 102.763 31.9716 101.92 33.5539C101.128 35.0834 100.733 36.8503 100.733 38.8545C100.733 40.9114 101.128 42.7311 101.92 44.3133C102.763 45.8429 103.897 47.0559 105.321 47.9526C106.798 48.7964 108.486 49.2184 110.385 49.2184ZM119.562 58V47.7152L121.223 38.3798L119.562 29.2026V19.7881H129.847V58H119.562ZM124.775 58V19.7881H135.218V58H124.775ZM129.996 13.6172C128.308 13.6172 126.911 13.0634 125.803 11.9558C124.696 10.7955 124.142 9.37145 124.142 7.68369C124.142 6.04867 124.696 4.651 125.803 3.49066C126.911 2.33033 128.308 1.75016 129.996 1.75016C131.737 1.75016 133.134 2.33033 134.189 3.49066C135.297 4.651 135.851 6.04867 135.851 7.68369C135.851 9.37145 135.297 10.7955 134.189 11.9558C133.134 13.0634 131.737 13.6172 129.996 13.6172ZM144.399 58V19.7881H154.763V58H144.399ZM154.763 36.8766L150.728 34.1868C151.202 29.4927 152.574 25.8007 154.842 23.1109C157.11 20.3683 160.38 18.9969 164.652 18.9969C166.498 18.9969 168.159 19.3134 169.636 19.9463C171.113 20.5265 172.458 21.5022 173.671 22.8735L167.183 30.3102C166.603 29.6773 165.891 29.2026 165.047 28.8862C164.256 28.5697 163.333 28.4115 162.278 28.4115C160.063 28.4115 158.244 29.1235 156.819 30.5475C155.448 31.9189 154.763 34.0285 154.763 36.8766ZM194.505 58.7911C190.496 58.7911 186.936 57.9473 183.824 56.2595C180.713 54.519 178.234 52.1456 176.388 49.1393C174.594 46.1329 173.698 42.7047 173.698 38.8545C173.698 35.057 174.568 31.6815 176.309 28.7279C178.102 25.7216 180.528 23.3482 183.587 21.6077C186.646 19.8145 190.048 18.9178 193.793 18.9178C197.485 18.9178 200.728 19.7617 203.524 21.4495C206.372 23.0845 208.587 25.3524 210.169 28.2533C211.804 31.1013 212.622 34.345 212.622 37.9842C212.622 38.6699 212.569 39.3819 212.464 40.1203C212.411 40.806 212.279 41.5971 212.068 42.4937L179.948 42.5728V34.8197L207.242 34.7406L203.049 37.9842C202.944 35.7163 202.522 33.8176 201.783 32.288C201.098 30.7585 200.069 29.5982 198.698 28.807C197.379 27.9632 195.744 27.5412 193.793 27.5412C191.736 27.5412 189.943 28.0159 188.413 28.9653C186.883 29.8619 185.697 31.1541 184.853 32.8418C184.062 34.4769 183.666 36.4283 183.666 38.6963C183.666 41.0169 184.088 43.0475 184.932 44.788C185.829 46.4758 187.094 47.7943 188.729 48.7437C190.364 49.6403 192.263 50.0886 194.426 50.0886C196.377 50.0886 198.144 49.7722 199.726 49.1393C201.309 48.4536 202.68 47.4515 203.84 46.1329L209.932 52.2247C208.086 54.3871 205.818 56.0222 203.128 57.1297C200.491 58.2373 197.617 58.7911 194.505 58.7911Z" fill="#E2E7E0"/>
</svg>
