<svg width="115" height="132" viewBox="0 0 115 132" fill="none" xmlns="http://www.w3.org/2000/svg">
<path d="M60.1711 8.13306C60.1711 5.33479 57.4867 3.31642 54.9008 4.38576C52.9076 5.21001 50.9454 6.17436 49.0267 7.28213C26.6403 20.2069 18.2049 48.0159 29.0037 70.9918C29.993 73.0967 32.5881 73.7831 34.6023 72.6202L58.0655 59.0737C59.3685 58.3215 60.1711 56.9312 60.1711 55.4267V8.13306Z" fill="#99CF70"/>
<path d="M71.0151 48.4822C71.0151 49.8667 72.5139 50.732 73.7129 50.0397L112.823 27.4593C114.838 26.2964 115.541 23.7071 114.213 21.7978C105.019 8.58081 90.2729 1.09146 75.0045 0.677403C72.7676 0.616741 71.0151 2.48328 71.0151 4.72101V48.4822Z" fill="#74865E"/>
<path d="M54.8287 123.561C54.8287 126.359 57.5131 128.378 60.099 127.308C62.0922 126.484 64.0544 125.52 65.9731 124.412C88.3595 111.487 96.7949 83.6781 85.9961 60.7022C85.0068 58.5973 82.4117 57.9108 80.3975 59.0737L56.9343 72.6202C55.6313 73.3725 54.8287 74.7627 54.8287 76.2673V123.561Z" fill="#99CF70"/>
<path d="M43.9847 83.2118C43.9847 81.8273 42.4859 80.962 41.2869 81.6542L2.1764 104.235C0.16218 105.398 -0.541771 107.987 0.786418 109.896C9.98086 123.113 24.7269 130.603 39.9953 131.017C42.2322 131.077 43.9847 129.211 43.9847 126.973V83.2118Z" fill="#74865E"/>
<path d="M54.9846 4.58832C57.408 3.58615 59.952 5.4708 59.952 8.13306V55.4267C59.952 56.8529 59.1911 58.1708 57.9559 58.8839L34.4927 72.4304C32.5788 73.5354 30.1316 72.8763 29.2021 70.8986C18.4513 48.0248 26.8494 20.3393 49.1363 7.47196C51.0467 6.369 53.0002 5.4089 54.9846 4.58832ZM73.6033 49.8499C72.5504 50.4578 71.2343 49.698 71.2343 48.4822V4.72101C71.2343 2.59477 72.8966 0.839508 74.9986 0.896511C90.1998 1.30875 104.88 8.76516 114.033 21.923C115.281 23.7169 114.628 26.1644 112.714 27.2694L73.6033 49.8499ZM60.0152 127.106C57.5918 128.108 55.0479 126.223 55.0479 123.561V76.2673C55.0479 74.8411 55.8087 73.5232 57.0439 72.8101L80.5071 59.2636C82.421 58.1586 84.8682 58.8176 85.7977 60.7954C96.5485 83.6691 88.1504 111.355 65.8635 124.222C63.9531 125.325 61.9996 126.285 60.0152 127.106ZM41.3965 81.8441C42.4494 81.2362 43.7655 81.996 43.7655 83.2118V126.973C43.7655 129.099 42.1032 130.854 40.0012 130.797C24.8 130.385 10.1196 122.929 0.966352 109.771C-0.281536 107.977 0.37198 105.53 2.28599 104.425L41.3965 81.8441Z" stroke="white" stroke-opacity="0.2" stroke-width="0.438379"/>
</svg>
